<?xml version="1.0" standalone="no"?>
<!DOCTYPE svg PUBLIC "-//W3C//DTD SVG 20010904//EN"
 "http://www.w3.org/TR/2001/REC-SVG-20010904/DTD/svg10.dtd">
<svg version="1.0" xmlns="http://www.w3.org/2000/svg"
 width="500.000000pt" height="500.000000pt" viewBox="0 0 500.000000 500.000000"
 preserveAspectRatio="xMidYMid meet">
<metadata>
Created by potrace 1.11, written by Peter Selinger 2001-2013
</metadata>
<g transform="translate(0.000000,500.000000) scale(0.100000,-0.100000)"
fill="#000000" stroke="none">
<path d="M1601 4112 l-553 -307 -149 -515 c-82 -283 -149 -519 -149 -525 0 -7
113 -9 323 -7 l323 3 297 -261 296 -260 -6 -95 -6 -95 -139 -137 c-76 -76
-143 -139 -147 -141 -5 -2 -170 78 -368 177 l-358 179 -104 196 c-57 108 -108
196 -113 196 -4 0 -8 -188 -8 -419 0 -323 3 -421 13 -429 6 -5 182 -93 391
-195 l379 -184 74 -174 c81 -192 87 -200 204 -266 l75 -41 109 -226 c60 -124
112 -226 117 -226 4 0 8 70 8 155 0 85 2 155 5 155 3 0 80 -43 170 -95 90 -52
171 -98 179 -101 10 -4 85 34 191 95 96 56 177 101 180 101 3 0 5 -70 5 -155
0 -85 4 -155 8 -155 5 0 56 100 115 223 l106 222 78 46 c122 73 125 76 207
268 l74 174 378 185 c209 101 385 189 392 194 9 8 12 106 12 429 0 243 -4 419
-9 419 -5 0 -56 -88 -113 -196 l-103 -196 -358 -179 c-198 -99 -363 -179 -368
-177 -4 2 -71 65 -147 141 l-139 137 -6 95 -6 94 272 261 272 260 348 -2 c226
-2 347 0 347 7 0 6 -67 242 -149 525 l-149 515 -557 308 c-307 169 -562 307
-567 307 -4 0 -8 -210 -8 -468 l0 -467 -147 -160 c-81 -88 -150 -158 -153
-155 -3 3 -69 74 -147 160 l-143 154 0 468 c0 368 -3 468 -12 467 -7 -1 -262
-139 -567 -307z m715 -2589 c81 -47 153 -86 159 -86 6 0 78 39 159 86 81 48
149 87 152 87 3 0 4 -18 2 -39 -3 -35 -18 -55 -158 -202 l-155 -162 -157 164
c-146 152 -157 167 -158 202 0 20 2 37 5 37 2 0 70 -39 151 -87z"/>
</g>
</svg>
